<svg xmlns="http://www.w3.org/2000/svg" xmlns:xlink="http://www.w3.org/1999/xlink" width="400" height="400" viewBox="0 0 400 400"><defs><style>.a{clip-path:url(#b);}.b{fill:#42d348;}</style><clipPath id="b"><rect width="400" height="400"/></clipPath></defs><g id="a" class="a"><path class="b" d="M304.061,39.367,279.935,13.895a5.124,5.124,0,0,0-3.838-1.689h0a4.918,4.918,0,0,0-3.838,1.689L105.02,186.849,44.156,124.366a5.206,5.206,0,0,0-7.677,0l-24.4,25.049a5.712,5.712,0,0,0,0,8.021l76.765,78.807c4.935,5.066,10.966,8.021,16.038,8.021,7.265,0,13.571-5.488,15.9-7.74h.137L304.2,47.388A6.136,6.136,0,0,0,304.061,39.367Z" transform="translate(41.972 71.764)"/></g></svg>