<svg xmlns="http://www.w3.org/2000/svg" xmlns:xlink="http://www.w3.org/1999/xlink" width="400" height="400" viewBox="0 0 400 400">
  <defs>
    <clipPath id="clip-delete_2">
      <rect width="400" height="400"/>
    </clipPath>
  </defs>
  <g id="delete_2" data-name="delete – 2" clip-path="url(#clip-delete_2)">
    <g id="パス_9" data-name="パス 9" transform="translate(76.102 126.104)" fill="none">
      <path d="M15.228,0H230.162C240.348,0,248.6,8.536,248.6,19.065L230.016,231.831c0,10.529-8.257,19.065-18.442,19.065H35.495c-10.186,0-18.442-8.536-18.442-19.065L0,19.065C0,8.536,5.043,0,15.228,0Z" stroke="none"/>
      <path d="M 25.55583190917969 25.00001525878906 L 41.65669250488281 225.8962249755859 L 205.4394683837891 225.8962249755859 L 222.9911651611328 25.00001525878906 L 25.55583190917969 25.00001525878906 M 15.22810363769531 1.52587890625e-05 L 230.1623840332031 1.52587890625e-05 C 240.3478851318359 1.52587890625e-05 248.6048889160156 8.535736083984375 248.6048889160156 19.0650634765625 L 230.0161743164062 231.8311767578125 C 230.0161743164062 242.3605041503906 221.7592163085938 250.8962249755859 211.57373046875 250.8962249755859 L 35.49465942382812 250.8962249755859 C 25.30917358398438 250.8962249755859 17.05216979980469 242.3605041503906 17.05216979980469 231.8311767578125 L 0 19.0650634765625 C 0 8.535736083984375 5.042617797851562 1.52587890625e-05 15.22810363769531 1.52587890625e-05 Z" stroke="none" fill="#fff"/>
    </g>
    <g id="長方形_30" data-name="長方形 30" transform="translate(60 69)" fill="none" stroke="#fff" stroke-width="25">
      <rect width="280" height="81" rx="25" stroke="none"/>
      <rect x="12.5" y="12.5" width="255" height="56" rx="12.5" fill="none"/>
    </g>
    <rect id="長方形_9" data-name="長方形 9" width="142.11" height="23" rx="11.5" transform="translate(168.125 179.137) rotate(90)" fill="#fff"/>
    <rect id="長方形_31" data-name="長方形 31" width="142.11" height="23" rx="11.5" transform="translate(211.5 179.137) rotate(90)" fill="#fff"/>
    <rect id="長方形_32" data-name="長方形 32" width="142.11" height="23" rx="11.5" transform="translate(254.875 179.137) rotate(90)" fill="#fff"/>
    <g id="長方形_33" data-name="長方形 33" transform="translate(151 30)" fill="none" stroke="#fff" stroke-width="25">
      <rect width="98" height="60" rx="25" stroke="none"/>
      <rect x="12.5" y="12.5" width="73" height="35" rx="12.5" fill="none"/>
    </g>
  </g>
</svg>
