<svg xmlns="http://www.w3.org/2000/svg" xmlns:xlink="http://www.w3.org/1999/xlink" width="400" height="400" viewBox="0 0 400 400"><defs><style>.a{clip-path:url(#b);}.b,.c,.g{fill:none;}.c{stroke:#ff5f5f;stroke-width:25px;}.d{fill:#ff5f5f;}.e,.f{stroke:none;}.f{fill:#ff5f5f;}</style><clipPath id="b"><rect width="400" height="400"/></clipPath></defs><g id="a" class="a"><g class="b" transform="translate(76.102 126.104)"><path class="e" d="M15.228,0H230.162C240.348,0,248.6,8.536,248.6,19.065L230.016,231.831c0,10.529-8.257,19.065-18.442,19.065H35.495c-10.186,0-18.442-8.536-18.442-19.065L0,19.065C0,8.536,5.043,0,15.228,0Z"/><path class="f" d="M 25.55583190917969 25.00001525878906 L 41.65669250488281 225.8962249755859 L 205.4394683837891 225.8962249755859 L 222.9911651611328 25.00001525878906 L 25.55583190917969 25.00001525878906 M 15.22810363769531 1.52587890625e-05 L 230.1623840332031 1.52587890625e-05 C 240.3478851318359 1.52587890625e-05 248.6048889160156 8.535736083984375 248.6048889160156 19.0650634765625 L 230.0161743164062 231.8311767578125 C 230.0161743164062 242.3605041503906 221.7592163085938 250.8962249755859 211.57373046875 250.8962249755859 L 35.49465942382812 250.8962249755859 C 25.30917358398438 250.8962249755859 17.05216979980469 242.3605041503906 17.05216979980469 231.8311767578125 L 0 19.0650634765625 C 0 8.535736083984375 5.042617797851562 1.52587890625e-05 15.22810363769531 1.52587890625e-05 Z"/></g><g class="c" transform="translate(60 69)"><rect class="e" width="280" height="81" rx="25"/><rect class="g" x="12.5" y="12.5" width="255" height="56" rx="12.5"/></g><rect class="d" width="142.11" height="23" rx="11.5" transform="translate(168.125 179.137) rotate(90)"/><rect class="d" width="142.11" height="23" rx="11.5" transform="translate(211.5 179.137) rotate(90)"/><rect class="d" width="142.11" height="23" rx="11.5" transform="translate(254.875 179.137) rotate(90)"/><g class="c" transform="translate(151 30)"><rect class="e" width="98" height="60" rx="25"/><rect class="g" x="12.5" y="12.5" width="73" height="35" rx="12.5"/></g></g></svg>