<svg xmlns="http://www.w3.org/2000/svg" xmlns:xlink="http://www.w3.org/1999/xlink" width="400" height="400" viewBox="0 0 400 400"><defs><style>.a{clip-path:url(#b);}.b{fill:#282836;}.c{fill:none;}.d,.e{stroke:none;}.e{fill:#282836;}</style><clipPath id="b"><rect width="400" height="400"/></clipPath></defs><g id="a" class="a"><rect class="b" width="342" height="36" rx="16" transform="translate(29 325)"/><g class="c" transform="matrix(-0.755, -0.656, 0.656, -0.755, 110.968, 333.87)"><path class="d" d="M34.855,3.587c4.234-6.459,9.624-6.647,13.354-.466L76.259,49.6c3.735,6.189,3.433,17.408,3.024,27.652L69.19,330.471c-1.931,10.289-6.57,17.371-11.493,17.543l-59.89,2.09c-4.923.172-9.01-6.605-10.125-16.788L-2.225,80.1c.408-10.244,1-21.473,5.24-27.94Z"/><path class="e" d="M 41.07962799072266 39.69137573242188 L 24.32191848754883 65.25473022460938 C 23.26028823852539 68.42361450195312 22.90864944458008 77.24966430664062 22.75556945800781 81.09237670898438 L 13.05091094970703 324.5563659667969 L 44.44960021972656 323.4603881835938 L 54.30335235595703 76.25546264648438 C 54.44509887695312 72.70071411132812 54.76516723632812 64.67477416992188 54.14789962768555 61.34536743164062 L 41.07962799072266 39.69137573242188 M 41.90254211425781 -1.389373779296875 C 44.18155670166016 -1.389373779296875 46.39215850830078 0.110198974609375 48.20899963378906 3.12066650390625 L 76.25949859619141 49.60009765625 C 79.99449920654297 55.78897094726562 79.69207000732422 67.00775146484375 79.28349304199219 77.25173950195312 L 69.18999481201172 330.4707336425781 C 67.25942230224609 340.7598266601562 62.61978149414062 347.8414001464844 57.69664001464844 348.0132446289062 L -2.193145751953125 350.1036682128906 C -7.116157531738281 350.2754821777344 -11.20357513427734 343.4984741210938 -12.31807708740234 333.315673828125 L -2.224571228027344 80.0966796875 C -1.816505432128906 69.85275268554688 -1.224075317382812 58.62380981445312 3.015426635742188 52.1566162109375 L 34.85464096069336 3.586822509765625 C 37.02646255493164 0.273773193359375 39.50243759155273 -1.389373779296875 41.90254211425781 -1.389373779296875 Z"/></g></g></svg>