<svg xmlns="http://www.w3.org/2000/svg" xmlns:xlink="http://www.w3.org/1999/xlink" width="400" height="400" viewBox="0 0 400 400">
  <defs>
    <clipPath id="clip-write">
      <rect width="400" height="400"/>
    </clipPath>
  </defs>
  <g id="write" clip-path="url(#clip-write)">
    <rect id="長方形_116" data-name="長方形 116" width="355.301" height="88.329" rx="21" transform="translate(22.349 38.663)" fill="#fff" stroke="#282836" stroke-linejoin="round" stroke-width="25"/>
    <path id="パス_26" data-name="パス 26" d="M0-90.494H355.3V110.121c0,10.685-9.5,19.347-21.226,19.347H21.226C9.5,129.468,0,120.806,0,110.121V-90.494Z" transform="translate(22.349 212.85)" fill="#fff" stroke="#282836" stroke-width="25"/>
    <g id="楕円形_35" data-name="楕円形 35" transform="translate(46.665 55.827)" fill="none" stroke="#282836" stroke-width="12">
      <circle cx="26" cy="26" r="26" stroke="none"/>
      <circle cx="26" cy="26" r="20" fill="none"/>
    </g>
    <rect id="長方形_151" data-name="長方形 151" width="199.653" height="23" rx="11.5" transform="translate(44.109 277.485)" fill="#282836"/>
    <rect id="長方形_150" data-name="長方形 150" width="83.653" height="23" rx="11.5" transform="translate(44.109 233.648)" fill="#282836"/>
    <rect id="長方形_152" data-name="長方形 152" width="128.653" height="23" rx="11.5" transform="translate(44.109 189.81)" fill="#282836"/>
    <g id="グループ_6" data-name="グループ 6" transform="translate(-9.066 -74.812)">
      <g id="パス_34" data-name="パス 34" transform="translate(206.19 382.84) rotate(-138)" fill="#fff">
        <path d="M 76.26092529296875 82.20858764648438 L 17.62858581542969 82.20858764648438 C 16.80560684204102 82.20858764648438 15.39788627624512 81.32862854003906 14.41000652313232 79.69780731201172 C 13.56294631958008 78.29949188232422 13.50316619873047 77.10771179199219 13.65958595275879 76.80832672119141 L 42.97574615478516 20.70220756530762 C 43.62228775024414 19.46486854553223 44.980224609375 19.3312873840332 45.5340461730957 19.3312873840332 C 46.08786773681641 19.3312873840332 47.44580459594727 19.46486854553223 48.09234619140625 20.70220756530762 L 77.40850830078125 76.80831146240234 C 78.0653076171875 78.06533050537109 77.93620300292969 80.11238861083984 77.11460876464844 81.46868896484375 C 76.66640472412109 82.20858764648438 76.371826171875 82.20858764648438 76.26092529296875 82.20858764648438 Z" stroke="none"/>
        <path d="M 45.53402328491211 33.08077239990234 L 24.04420471191406 74.20858764648438 L 67.02388000488281 74.20858764648438 L 45.53402328491211 33.08077239990234 M 45.53404235839844 11.33128356933594 C 49.37153244018555 11.33128356933594 53.20901870727539 13.21998596191406 55.18275833129883 16.99737548828125 L 84.49893951416016 73.10345458984375 C 88.02933502197266 79.86000823974609 84.23617553710938 90.20858764648438 76.26091766357422 90.20858764648438 L 17.62857055664062 90.20858764648438 C 9.653335571289062 90.20858764648438 3.03875732421875 79.86000823974609 6.56915283203125 73.10345458984375 L 35.88531112670898 16.99737548828125 C 37.85905838012695 13.21998596191406 41.69655227661133 11.33128356933594 45.53404235839844 11.33128356933594 Z" stroke="none" fill="#282836"/>
      </g>
      <g id="パス_33" data-name="パス 33" transform="translate(243.155 321.639) rotate(-138)" fill="#fff">
        <path d="M 32.69887924194336 202.7989501953125 C 19.07987976074219 202.7989501953125 7.99999475479126 191.3202209472656 7.99999475479126 177.2109832763672 L 7.99999475479126 4.405738353729248 C 13.50112342834473 7.336076259613037 21.40311622619629 10.73925590515137 31.7004566192627 10.73925590515137 L 31.78803253173828 10.73925590515137 L 32.73130416870117 10.72794818878174 C 43.50384902954102 10.49216651916504 51.7891845703125 6.789119243621826 57.39776229858398 3.848917722702026 L 57.39776229858398 177.2109832763672 C 57.39776229858398 191.3202209472656 46.31787872314453 202.7989501953125 32.69887924194336 202.7989501953125 Z" stroke="none"/>
        <path d="M 49.39774322509766 15.95574951171875 C 44.69411468505859 17.46101379394531 39.20015716552734 18.58828735351562 32.9051513671875 18.72605895996094 L 31.70046997070312 18.73924255371094 C 25.77999496459961 18.73924255371094 20.53113174438477 17.77175903320312 16.00001525878906 16.40306091308594 L 16.00001525878906 177.2110137939453 C 16.00001525878906 186.9090118408203 23.49110794067383 194.7989196777344 32.69887924194336 194.7989196777344 C 41.90665435791016 194.7989196777344 49.39774322509766 186.9090118408203 49.39774322509766 177.2110137939453 L 49.39774322509766 15.95574951171875 M 62.52339172363281 -7.22772216796875 C 64.49525451660156 -7.228347778320312 65.39774322509766 -5.219573974609375 65.39774322509766 0.6033782958984375 L 65.39774322509766 177.2110137939453 C 65.39774322509766 195.7611083984375 50.75796890258789 210.7989196777344 32.69887924194336 210.7989196777344 C 14.63978958129883 210.7989196777344 1.52587890625e-05 195.7611083984375 1.52587890625e-05 177.2110137939453 L 1.52587890625e-05 0.6033782958984375 C 1.52587890625e-05 -17.72138977050781 8.668739318847656 2.739273071289062 31.70046234130859 2.7392578125 C 31.98364639282227 2.7392578125 32.26866149902344 2.736175537109375 32.55619812011719 2.729873657226562 C 48.79837036132812 2.374359130859375 58.21350479125977 -7.22637939453125 62.52339172363281 -7.22772216796875 Z" stroke="none" fill="#282836"/>
      </g>
    </g>
  </g>
</svg>
