<?xml version="1.0" encoding="UTF-8" standalone="no"?>
<!-- Created with Inkscape (http://www.inkscape.org/) -->

<svg
   xmlns:dc="http://purl.org/dc/elements/1.1/"
   xmlns:cc="http://creativecommons.org/ns#"
   xmlns:rdf="http://www.w3.org/1999/02/22-rdf-syntax-ns#"
   xmlns:svg="http://www.w3.org/2000/svg"
   xmlns="http://www.w3.org/2000/svg"
   xmlns:sodipodi="http://sodipodi.sourceforge.net/DTD/sodipodi-0.dtd"
   xmlns:inkscape="http://www.inkscape.org/namespaces/inkscape"
   width="147.62816"
   height="188.87595"
   id="svg2"
   version="1.1"
   inkscape:version="0.47 r22583"
   sodipodi:docname="soccer player silhouette.svg">
  <defs
     id="defs4">
    <inkscape:perspective
       sodipodi:type="inkscape:persp3d"
       inkscape:vp_x="0 : 526.18109 : 1"
       inkscape:vp_y="0 : 1000 : 0"
       inkscape:vp_z="744.09448 : 526.18109 : 1"
       inkscape:persp3d-origin="372.04724 : 350.78739 : 1"
       id="perspective10" />
    <inkscape:perspective
       id="perspective2824"
       inkscape:persp3d-origin="0.5 : 0.33333333 : 1"
       inkscape:vp_z="1 : 0.5 : 1"
       inkscape:vp_y="0 : 1000 : 0"
       inkscape:vp_x="0 : 0.5 : 1"
       sodipodi:type="inkscape:persp3d" />
  </defs>
  <sodipodi:namedview
     id="base"
     pagecolor="#ffffff"
     bordercolor="#666666"
     borderopacity="1.0"
     inkscape:pageopacity="0.0"
     inkscape:pageshadow="2"
     inkscape:zoom="2.8"
     inkscape:cx="147.62208"
     inkscape:cy="97.117157"
     inkscape:document-units="px"
     inkscape:current-layer="layer1"
     showgrid="false"
     inkscape:window-width="1600"
     inkscape:window-height="838"
     inkscape:window-x="-8"
     inkscape:window-y="-8"
     inkscape:window-maximized="1" />
  <metadata
     id="metadata7">
    <rdf:RDF>
      <cc:Work
         rdf:about="">
        <dc:format>image/svg+xml</dc:format>
        <dc:type
           rdf:resource="http://purl.org/dc/dcmitype/StillImage" />
        <dc:title />
      </cc:Work>
    </rdf:RDF>
  </metadata>
  <g
     inkscape:label="Camada 1"
     inkscape:groupmode="layer"
     id="layer1"
     transform="translate(-319.18702,-506.83073)">
    <path
       sodipodi:type="arc"
       style="fill:#787878;fill-opacity:1;stroke:none"
       id="path2832"
       sodipodi:cx="412.85715"
       sodipodi:cy="629.05859"
       sodipodi:rx="8.5714283"
       sodipodi:ry="8.5714283"
       d="m 421.42858,629.05859 c 0,4.73387 -3.83756,8.57143 -8.57143,8.57143 -4.73387,0 -8.57143,-3.83756 -8.57143,-8.57143 0,-4.73387 3.83756,-8.57142 8.57143,-8.57142 4.73387,0 8.57143,3.83755 8.57143,8.57142 z"
       transform="matrix(1.5858501,0,0,1.5858501,-215.79891,-332.06906)" />
    <path
       style="fill:#000000;fill-opacity:1;stroke:#000000;stroke-width:1.2686801px;stroke-linecap:butt;stroke-linejoin:miter;stroke-opacity:1"
       d="m 320.89808,546.47156 c 2.22458,2.20788 4.8468,3.12889 7.94721,2.50241 5.01013,-0.5508 10.11207,0.31462 14.20413,3.39469 5.50154,2.41238 2.81222,7.87498 2.45943,12.44461 -0.76688,7.13037 1.58824,15.30336 -3.2681,21.41957 -1.19631,5.52517 7.22699,4.55243 5.34737,10.56177 -2.6e-4,5.17474 1.3604,10.05825 3.303,14.81721 3.27814,7.81765 6.03189,15.98643 11.10614,22.87375 2.37849,4.30614 3.46497,9.29698 6.70284,13.14058 5.31167,-3.10059 10.68131,-6.07176 16.65143,-7.7027 2.44795,3.11056 5.63559,5.89529 7.64399,9.19948 0.9961,5.09954 -0.0102,10.89331 3.57883,15.09384 3.26416,6.3379 9.26104,10.94222 11.2667,17.96215 1.997,3.72778 0.0855,8.45361 1.41148,11.88998 0.92707,2.40254 5.73671,0.46981 8.47651,1.00344 4.72547,-0.62947 13.60795,-3.28773 14.9361,-5.53246 1.27857,-2.1609 -5.85039,-2.10169 -10.10746,-3.92394 -9.54656,-1.08285 -5.75848,-14.84192 -12.71399,-20.09234 -3.04948,-5.95158 -5.86227,-12.23912 -5.80178,-19.04875 -0.93986,-4.08323 -4.31692,-7.35221 -6.24325,-11.10588 -2.37034,-4.44248 -5.64032,-8.19621 -9.16218,-11.75713 6.20302,-1.1358 13.8681,-2.89875 18.47149,2.79347 6.84184,4.5929 12.0359,10.84231 17.14709,17.21417 5.28317,6.24252 12.24745,11.29851 15.2293,19.1784 1.019,2.6985 5.05334,2.35857 7.12174,1.68132 1.63471,-3.98857 4.27943,0.65258 7.18078,-0.14577 3.02133,-0.31875 6.91975,1.90469 9.01433,-1.10014 6.52958,-2.81785 2.70563,-9.61434 -3.90945,-8.56639 -5.40671,-0.26311 -11.98603,2.00241 -14.97707,-4.09559 -6.20654,-9.41348 -12.87789,-18.64108 -20.69117,-26.7666 -3.42137,-3.41245 -7.80811,-6.10789 -9.28267,-10.96628 -1.27042,-3.8269 -1.86919,-8.07051 -6.85072,-8.60433 -8.10992,-3.13671 -13.68273,-10.36939 -20.28728,-15.80526 -2.19205,-1.97034 -4.85504,-3.65934 -4.86175,-6.93535 -1.1714,-3.21815 -1.40065,-6.4479 -0.19903,-9.69529 -0.60866,-4.02878 3.862,-3.39824 5.39438,-0.83345 5.69637,5.64359 10.98329,11.79892 16.93236,17.12668 6.65679,4.15829 13.68091,7.79666 19.42725,13.22177 5.45049,1.12896 1.43128,7.55602 5.48049,8.59238 6.35203,0.42633 8.12918,-8.23991 4.17702,-12.57352 -3.71616,-2.47243 -8.34867,-3.69908 -11.73819,-6.49667 -7.56372,-8.29537 -15.34052,-16.39905 -22.69741,-24.8805 -1.8994,-8.58009 -2.56538,-18.05558 -10.64785,-23.33466 -3.13409,-2.25491 -2.12985,-4.70346 0.11025,-7.20983 2.59281,-5.39473 2.55259,-11.76943 2.42422,-17.6682 -0.66888,-8.12017 -10.50618,-13.90312 -17.01146,-7.61125 -1.97244,2.33221 -4.7605,4.31756 -4.14909,7.7486 -0.58302,3.79316 -0.25363,7.58381 0.1622,11.37422 -6.4398,4.97593 -14.90996,4.69158 -22.51533,6.52233 -5.91722,1.29831 -11.90337,1.41909 -17.92384,0.95383 -3.34488,0.80347 -7.5612,1.39838 -9.28856,4.5583 0.26332,1.77758 -0.75556,3.99473 1.01952,5.18333 l 5e-5,0 z"
       id="path2830"
       sodipodi:nodetypes="cccccccccccccscsccccccccccccccccccccccccccccccccccccc" />
  </g>
</svg>
